Coordinates
version=1
nRows=8
nColumns=36
inDegrees=yes

Units are S.I. units (second, meters, Newtons, ...)
If the header above contains a line with 'inDegrees', this indicates whether rotational values are in degrees (yes) or radians (no).

endheader
time	pelvis_tilt	pelvis_list	pelvis_rotation	pelvis_tx	pelvis_ty	pelvis_tz	hip_flexion_r	hip_adduction_r	hip_rotation_r	knee_angle_r	knee_angle_r_beta	ankle_angle_r	subtalar_angle_r	mtp_angle_r	hip_flexion_l	hip_adduction_l	hip_rotation_l	knee_angle_l	knee_angle_l_beta	ankle_angle_l	subtalar_angle_l	mtp_angle_l	lumbar_extension	lumbar_bending	lumbar_rotation	arm_flex_r	arm_add_r	arm_rot_r	elbow_flex_r	pro_sup_r	arm_flex_l	arm_add_l	arm_rot_l	elbow_flex_l	pro_sup_l
      3.05000000	      2.10512765	      9.17482048	     -7.04775808	     -1.64392577	      1.00708920	     -0.20867327	    -14.21615661	    -10.20859339	     -0.46025193	     33.57744715	      0.58603701	    -11.76088209	     -6.65056640	     -7.49999987	     17.62173845	     11.80864592	      1.68989396	     24.20372449	      0.42243468	      6.13713781	    -15.18878891	     -7.49999987	    -11.23039057	     -9.68921284	      2.86366030	      1.83631703	    -10.52189068	     13.46315945	     22.25098132	     72.44618335	    -14.06050420	     -9.12183036	     -3.95137847	     15.29880227	     69.02094084
      3.06666670	      3.16355250	      8.33294185	     -7.05004137	     -1.62806227	      1.00792994	     -0.21135435	    -12.04765383	     -9.81304970	     -0.46813111	     38.91265673	      0.67915398	    -14.78955752	     -9.00485227	     -7.49999987	     14.84029010	     11.23575414	      1.79887201	     23.07115336	      0.40266759	      6.23365183	    -15.12895487	     -7.49999987	    -12.54641286	     -8.94083573	      2.45723545	      1.35683982	    -10.70883207	     13.49213420	     22.43285770	     72.42544478	    -13.32951871	     -9.16617624	     -3.99595236	     15.74870468	     69.14981169
      3.08333330	      4.01012116	      7.50196979	     -7.06972999	     -1.61288937	      1.01024156	     -0.21427137	     -9.46327877	     -9.47219988	     -0.56143327	     44.28705306	      0.77295489	    -16.79155156	    -10.93992293	     -7.49999987	     12.25807115	     10.62941717	      1.69833577	     21.70729918	      0.37886384	      6.47779593	    -14.83131480	     -7.49999987	    -13.65655678	     -8.18473260	      2.14363996	      0.86425446	    -10.96258526	     13.58144052	     22.65035836	     72.40013410	    -12.50050632	     -9.23382144	     -3.97823664	     16.49926928	     69.27496821
      3.10000000	      4.69660844	      6.56267914	     -7.11271668	     -1.59837104	      1.01243276	     -0.21699925	     -6.61996574	     -8.90779153	     -0.41360184	     49.11810564	      0.85727267	    -17.72425721	    -12.58425661	     -7.49999987	      9.82483888	      9.87582314	      1.40309214	     20.23886793	      0.35323488	      6.64220601	    -14.20281884	     -7.49999987	    -14.62386953	     -7.23646469	      1.98081087	      0.34089134	    -11.28502195	     13.73428741	     22.82526669	     72.43551595	    -11.61276528	     -9.27611034	     -3.87566193	     17.45651043	     69.49906840
      3.11666670	      5.29879878	      5.61134142	     -7.09760387	     -1.58314663	      1.01631833	     -0.21888304	     -3.48702649	     -8.20151343	     -0.18739527	     53.54502047	      0.93453691	    -17.28853401	    -14.18948340	     -7.49999987	      7.42754988	      9.09599426	      0.98700551	     18.61291430	      0.32485664	      6.83199013	    -13.34015308	     -7.49999987	    -15.56641847	     -6.26843307	      1.82883161	     -0.16954164	    -11.61822858	     13.87405301	     22.89966799	     72.48170000	    -10.57231969	     -9.37115918	     -3.69206365	     18.51461813	     69.79670746
      3.13333330	      5.62905301	      4.53257693	     -6.74217593	     -1.56633829	      1.02099437	     -0.22018097	     -0.12167081	     -7.15153673	     -0.14436760	     56.87711459	      0.99269292	    -15.49134359	    -15.45658513	     -7.49999987	      5.27247984	      8.20180231	      1.03396617	     17.00233180	      0.29674667	      7.00015161	    -12.53103700	     -7.49999987	    -16.22235631	     -4.99106255	      1.27819159	     -0.73924940	    -11.87789243	     13.90444852	     23.03669044	     72.38005043	     -9.55688075	     -9.49005472	     -3.60999517	     19.56455183	     69.83748956
      3.15000000	      6.19758705	      3.56111823	     -6.81152818	     -1.54969569	      1.02561622	     -0.22049696	      3.03722732	     -6.02524913	      0.43912604	     59.09661522	      1.03143051	    -12.42170399	    -16.24705763	     -7.49999987	      2.74834745	      7.30647381	      0.17531978	     15.10084288	      0.26355943	      7.63450741	    -10.56532489	     -7.49999987	    -17.17778799	     -4.09766665	      1.67414716	     -1.37437331	    -12.01622138	     13.80816179	     22.68184097	     72.64580354	     -8.03777349	     -9.84258130	     -2.59755530	     20.80557522	     71.20791936
      3.16666670	      6.43919389	      2.68254753	     -6.63276931	     -1.53453016	      1.02989185	     -0.22196209	      6.27447886	     -4.88321608	      0.78192277	     60.10999433	      1.04911731	     -8.78831207	    -16.47631493	     -7.49999987	      0.54325626	      6.59739890	      0.11004187	     13.18891276	      0.23018995	      7.80970034	     -9.60843592	     -7.49999987	    -17.62128990	     -3.08068838	      1.51601519	     -2.01121633	    -12.23369621	     13.62658204	     22.45846142	     72.61902095	     -6.66380971	    -10.15476751	     -2.31720469	     21.94816974	     71.59524610
